<?xml version="1.0" encoding="UTF-8" standalone="no"?>
<!DOCTYPE svg PUBLIC "-//W3C//DTD SVG 1.1//EN" "http://www.w3.org/Graphics/SVG/1.1/DTD/svg11.dtd">
<svg width="100%" height="100%" viewBox="0 0 800 800" version="1.1" xmlns="http://www.w3.org/2000/svg" xmlns:xlink="http://www.w3.org/1999/xlink" xml:space="preserve" xmlns:serif="http://www.serif.com/" style="fill-rule:evenodd;clip-rule:evenodd;stroke-linejoin:round;stroke-miterlimit:2;">
    <path d="M174.594,250.263C182.886,253.982 194.55,257.998 213.629,258.72L213.591,258.587C207.206,235.967 219.358,187.194 250.285,151.422C281.267,115.585 331.091,92.797 400,122.427C468.909,92.797 518.733,115.585 549.715,151.422C580.704,187.266 592.843,236.163 586.371,258.72L586.638,258.709C605.559,257.961 617.152,253.965 625.406,250.263C635.937,245.54 642.977,240.757 650.979,245.928C651.099,245.998 651.22,246.07 651.342,246.143C653.361,247.359 655.852,249.082 657.19,250.263C661.047,253.67 662.148,255.241 663.886,257.275C684.061,280.878 695.819,325.812 693.151,372.396C689.975,427.859 666.349,485.662 612.134,512.592L612.081,512.618C622.648,560.521 610.928,605.132 575.915,637.786C540.986,670.361 482.875,691.036 400.59,691.205L399.41,691.205C317.125,691.036 259.014,670.361 224.085,637.786C189.072,605.132 177.352,560.521 187.919,512.618L187.866,512.592C133.651,485.662 110.025,427.859 106.849,372.396C104.181,325.812 115.939,280.878 136.114,257.275C137.665,255.459 139.435,253.427 142.306,250.936C143.971,249.492 145.883,247.814 148.658,246.143C148.776,246.072 148.894,246.002 149.012,245.934C158.17,240.635 163.36,244.649 174.594,250.263ZM400,400.199C441.34,399.839 466.994,417.661 482.03,438.382C497.07,459.109 501.486,482.737 500.35,493.966L500.344,494.009C548.091,501.235 550.665,521.426 548.236,546.907C542.046,611.869 478.353,622.757 406.742,624.258C404.629,624.365 402.399,624.404 400.037,624.373L399.963,624.373C397.817,624.396 395.672,624.367 393.528,624.271L393.258,624.258C321.647,622.757 257.954,611.869 251.764,546.907C249.335,521.426 251.909,501.235 299.656,494.009L299.65,493.966C298.514,482.737 302.93,459.109 317.97,438.382C333.006,417.661 358.66,399.839 400,400.199ZM238.902,457.527C280.199,458.566 290.098,424.193 280.682,389.421C271.265,354.649 242.532,319.477 206.565,318.92C130.769,317.744 187.976,456.246 238.902,457.527ZM561.098,457.527C519.801,458.566 509.902,424.193 519.318,389.421C528.735,354.649 557.468,319.477 593.435,318.92C669.231,317.744 612.024,456.246 561.098,457.527ZM466.295,319.323C423.348,322.78 410.849,281.863 412.446,240.583C413.836,204.665 416.295,169.621 447.545,168.918C494.052,167.873 564.463,311.421 466.295,319.323ZM333.705,319.323C376.652,322.78 389.151,281.863 387.554,240.583C386.164,204.665 383.705,169.621 352.455,168.918C305.948,167.873 235.537,311.421 333.705,319.323Z" style="fill:rgb(255,160,0);"/>
</svg>
